<?xml version="1.0" standalone="no"?>
<!DOCTYPE svg PUBLIC "-//W3C//DTD SVG 20010904//EN"
 "http://www.w3.org/TR/2001/REC-SVG-20010904/DTD/svg10.dtd">
<svg version="1.0" xmlns="http://www.w3.org/2000/svg"
 width="1024.000000pt" height="1024.000000pt" viewBox="0 0 1024.000000 1024.000000"
 preserveAspectRatio="xMidYMid meet">

<g transform="translate(0.000000,1024.000000) scale(0.100000,-0.100000)"
fill="#000000" stroke="none">
<path d="M4790 9145 c-332 -38 -606 -123 -900 -277 -496 -260 -841 -628 -1100
-1170 -97 -206 -145 -362 -224 -728 -60 -284 -134 -523 -213 -690 -27 -58 -99
-193 -160 -300 -225 -398 -280 -536 -303 -761 -18 -184 9 -349 85 -504 68
-140 181 -253 350 -353 80 -47 207 -92 258 -92 32 0 36 -3 42 -32 12 -52 42
-104 107 -185 91 -112 189 -179 323 -218 83 -25 222 -26 301 -1 l62 19 58 -36
c74 -45 196 -86 280 -94 35 -3 64 -9 64 -12 0 -8 -313 -165 -350 -176 -14 -4
-88 -37 -165 -72 -296 -136 -283 -126 -271 -206 6 -41 5 -43 -36 -69 -118 -75
-229 -207 -276 -328 -61 -157 -174 -632 -283 -1188 -11 -57 -29 -138 -39 -180
-38 -149 -19 -212 64 -212 68 0 89 32 106 154 15 108 76 422 116 596 94 405
187 770 209 815 34 69 90 132 181 201 l76 58 56 -64 c99 -114 315 -329 390
-388 39 -31 102 -75 138 -97 61 -37 67 -44 85 -99 41 -122 127 -202 242 -227
31 -7 57 -15 57 -18 0 -4 -17 -35 -38 -71 -21 -36 -86 -156 -145 -266 -89
-168 -107 -209 -107 -246 0 -53 21 -85 67 -104 38 -17 116 -9 273 25 47 11 88
17 92 15 3 -2 36 -55 73 -116 88 -147 158 -242 190 -256 40 -18 99 -15 128 8
31 24 43 56 102 275 25 94 59 217 75 275 32 113 133 504 158 610 8 36 16 71
18 78 3 9 17 2 45 -20 49 -39 101 -42 148 -9 l31 22 0 -25 c0 -13 5 -37 11
-53 6 -15 28 -95 50 -178 78 -293 141 -513 210 -727 80 -249 93 -268 176 -268
61 0 85 27 192 216 46 82 86 151 87 153 2 2 48 -3 101 -12 248 -42 246 -41
280 -23 19 9 42 34 54 58 36 71 26 101 -151 418 -50 91 -99 173 -107 183 -20
22 -16 26 53 49 64 22 126 59 161 97 30 31 72 111 88 166 10 34 25 49 100 102
131 93 263 212 413 373 74 80 138 145 142 145 22 0 176 -147 215 -204 60 -89
83 -169 230 -796 70 -302 124 -610 125 -718 0 -40 5 -54 29 -78 38 -38 91 -40
126 -4 28 27 33 80 15 176 -5 30 -21 128 -35 219 -26 160 -102 523 -149 705
-13 50 -34 132 -46 184 -38 163 -97 332 -136 389 -47 70 -150 169 -214 207
-40 24 -49 34 -44 50 15 52 15 67 0 89 -17 27 -49 44 -356 182 -225 101 -372
173 -404 197 -17 13 -14 14 40 21 135 15 249 55 307 106 l36 31 33 -18 c25
-13 63 -18 158 -21 108 -3 134 -1 190 18 153 51 347 231 390 363 l16 50 70 17
c265 68 460 227 570 465 60 129 85 248 84 400 0 284 -41 402 -305 885 -191
350 -275 571 -359 955 -88 399 -166 618 -318 900 -243 451 -606 800 -1072
1030 -243 119 -443 182 -736 230 -137 22 -181 25 -400 24 -135 -1 -297 -7
-360 -14z m725 -169 c500 -77 986 -328 1330 -688 114 -119 315 -382 315 -412
0 -10 -107 -56 -129 -56 -22 0 -35 14 -101 120 -125 201 -323 396 -578 568
-73 50 -292 164 -407 212 -204 84 -500 143 -637 126 -48 -6 -106 -33 -170 -78
-15 -11 -23 -8 -50 19 -49 48 -81 56 -203 55 -201 -2 -415 -51 -645 -149 -472
-201 -799 -507 -1124 -1050 -145 -243 -217 -450 -331 -958 -32 -144 -107 -395
-145 -485 -33 -77 -173 -380 -199 -430 -20 -38 -148 -388 -178 -485 -14 -48
-18 -93 -17 -230 0 -190 13 -257 79 -409 19 -44 32 -82 29 -85 -3 -3 -43 33
-88 80 -177 182 -230 400 -170 694 30 148 133 389 285 665 188 342 285 613
369 1029 94 462 228 766 486 1096 67 87 243 263 339 343 78 63 246 175 361
240 254 143 557 239 874 277 150 17 564 12 705 -9z m-618 -928 c51 -57 56
-103 15 -149 -32 -36 -59 -36 -103 0 -19 15 -24 29 -24 66 0 40 5 51 33 76 39
35 52 36 79 7z m278 -3 c20 -19 25 -34 25 -73 0 -66 -22 -92 -80 -99 -40 -4
-48 -2 -73 25 -43 45 -40 96 7 139 44 41 86 44 121 8z m268 -16 c23 -25 27
-36 21 -62 -8 -41 -38 -83 -62 -89 -37 -10 -86 15 -107 55 l-20 37 20 37 c37
69 96 78 148 22z m1804 -377 c22 -54 103 -382 103 -419 0 -32 -2 -33 -37 -32
-41 0 -181 23 -188 31 -2 2 0 22 6 43 23 81 -13 242 -67 300 -14 15 -24 28
-22 29 2 0 18 12 36 24 47 33 134 72 145 65 5 -3 16 -22 24 -41z m-729 -148
c42 -8 84 -17 92 -19 12 -4 15 -23 15 -94 0 -86 2 -93 43 -171 23 -46 41 -84
40 -84 -2 -1 -25 -16 -53 -33 -80 -50 -144 -78 -154 -67 -8 9 -151 457 -151
475 0 14 82 11 168 -7z m393 -24 c26 -14 58 -80 66 -135 5 -41 3 -49 -22 -75
-53 -55 -113 -34 -150 52 -29 70 -17 134 29 154 38 16 52 17 77 4z m-2436
-495 c49 -183 141 -350 255 -464 120 -120 201 -156 370 -168 189 -13 356 72
490 248 108 141 182 305 218 479 l9 45 27 -59 c97 -213 239 -401 396 -528 l45
-37 -90 28 c-108 34 -152 55 -225 110 -64 48 -100 52 -135 16 -31 -30 -33 -77
-5 -123 42 -69 223 -159 341 -169 95 -8 135 1 156 37 20 34 21 34 126 -12 38
-16 93 -35 123 -41 45 -9 56 -16 61 -36 3 -13 6 -141 7 -285 1 -292 -9 -367
-66 -481 -66 -130 -133 -194 -222 -211 l-39 -7 6 84 c4 46 7 125 7 175 l0 90
70 33 c79 36 106 71 95 122 -8 36 -49 69 -86 69 -16 0 -49 -13 -74 -29 -68
-43 -193 -75 -295 -75 -98 1 -172 19 -274 71 -67 34 -70 35 -102 19 -41 -19
-68 -67 -59 -105 11 -53 81 -101 146 -101 l29 0 0 -448 c0 -247 3 -516 6 -599
l7 -149 -84 -32 c-46 -17 -158 -50 -249 -74 -161 -42 -168 -43 -325 -42 -140
0 -174 4 -270 27 -135 34 -301 84 -337 103 l-28 15 0 592 0 593 45 12 c52 14
120 71 130 109 9 36 -12 81 -46 98 -39 21 -46 20 -140 -24 -108 -50 -158 -61
-266 -61 -105 0 -183 18 -279 65 -83 41 -113 43 -151 11 -37 -32 -39 -93 -3
-132 28 -30 94 -63 126 -64 20 0 21 -7 27 -122 4 -66 7 -150 7 -185 l0 -64
-37 7 c-98 16 -143 56 -227 199 -54 93 -82 176 -96 295 -11 92 -12 373 -2 459
l7 53 125 42 c69 23 138 49 154 58 29 15 30 15 66 -23 42 -45 58 -47 183 -24
188 33 363 168 325 250 -13 29 -66 65 -96 65 -11 0 -44 -21 -74 -46 -29 -25
-69 -54 -88 -64 -43 -22 -212 -82 -217 -77 -2 2 14 15 34 29 55 37 157 143
213 223 46 66 173 285 201 349 l13 28 7 -23 c4 -13 19 -69 34 -124z m3005 31
c0 -71 169 -606 256 -807 36 -85 68 -161 72 -169 3 -8 -4 -5 -17 7 -13 12 -29
19 -36 16 -33 -12 -152 245 -210 454 -20 70 -52 182 -71 248 -19 66 -38 149
-42 184 -8 56 -7 66 10 83 22 22 38 16 38 -16z m547 -1361 c99 -195 140 -368
130 -554 -7 -127 -31 -222 -80 -316 -41 -78 -124 -184 -164 -210 -25 -17 -26
-17 -19 1 62 155 106 355 106 484 0 97 -27 285 -58 408 -16 59 -27 125 -25
147 7 97 7 207 1 212 -5 2 -8 10 -8 16 1 18 66 -86 117 -188z m-1857 -165 c0
-103 -2 -117 -20 -133 -26 -22 -26 -69 1 -127 19 -41 21 -67 24 -302 l3 -258
-116 -62 c-64 -35 -120 -64 -123 -66 -3 -1 -7 237 -7 530 l-2 533 120 0 120 0
0 -115z m-1826 16 c9 -127 8 -976 -2 -976 -4 0 -61 30 -127 68 l-120 67 2 285
c1 157 2 314 3 350 1 36 -1 117 -5 180 l-7 115 125 0 124 0 7 -89z m-404 -543
l-1 -188 -89 92 c-63 65 -98 111 -120 158 -18 37 -30 68 -28 69 1 2 35 8 74
14 39 7 86 18 105 26 61 27 59 33 59 -171z m2523 146 l106 -13 -36 -70 c-36
-69 -176 -226 -202 -226 -8 0 -11 51 -11 170 0 162 1 170 18 161 10 -5 66 -15
125 -22z m-145 -645 c-14 -15 -32 -24 -38 -22 -8 2 1 13 21 26 45 29 49 28 17
-4z m-1558 -370 c36 -30 88 -66 115 -79 69 -34 197 -65 266 -65 110 0 263 62
368 150 33 27 63 50 66 50 3 0 5 -42 5 -94 l0 -94 -167 -105 c-220 -137 -256
-157 -277 -157 -41 0 -406 218 -448 267 -11 14 -14 37 -10 101 2 45 7 82 11
82 3 0 35 -25 71 -56z m-200 -239 c90 -72 211 -150 343 -220 l108 -57 -24 -27
c-28 -30 -131 -197 -142 -230 l-6 -21 -30 20 c-42 31 -271 137 -342 160 -104
33 -268 63 -347 63 -191 0 -290 -105 -352 -376 -25 -111 -27 -281 -5 -372 9
-33 14 -61 12 -63 -11 -11 -167 123 -280 239 -136 141 -265 282 -265 292 0 3
30 15 68 28 123 40 345 140 580 260 127 66 258 129 290 141 46 17 72 37 135
102 43 44 93 103 110 129 l31 48 24 -31 c13 -17 54 -55 92 -85z m1343 -9 c90
-92 126 -121 184 -150 39 -20 100 -54 135 -77 144 -93 686 -339 748 -339 10 0
21 -4 24 -8 7 -12 -164 -212 -289 -338 -95 -96 -219 -194 -230 -182 -2 2 3 46
11 98 18 115 12 217 -22 355 -49 205 -120 299 -246 326 -147 31 -423 -33 -666
-153 -101 -50 -125 -59 -133 -47 -5 8 -26 43 -46 78 -21 35 -59 87 -85 114
-26 28 -47 52 -45 53 1 1 55 32 121 68 65 37 141 82 170 100 62 40 246 195
246 207 0 18 14 6 123 -105z m-744 -421 l32 -45 -67 0 -66 0 14 23 c8 12 20
32 27 45 6 12 15 22 20 22 4 0 22 -20 40 -45z m-885 -60 c144 -30 332 -104
463 -181 l43 -25 -20 -39 c-11 -22 -20 -47 -20 -56 0 -15 -10 -16 -87 -9 -137
12 -169 7 -215 -33 -26 -22 -24 -83 5 -109 44 -40 65 -45 184 -42 l115 4 23
-58 c17 -41 21 -59 12 -62 -7 -2 -55 -20 -108 -39 -53 -19 -169 -51 -258 -71
-206 -46 -378 -105 -397 -136 -10 -16 -23 -9 -38 20 -20 38 -58 323 -59 436 0
103 37 268 75 338 42 76 128 95 282 62z m1942 -10 c46 -47 77 -156 94 -339 8
-80 6 -134 -10 -278 -11 -98 -25 -189 -31 -201 -23 -43 -29 -47 -48 -28 -30
30 -168 82 -336 126 -145 38 -390 111 -407 121 -3 2 4 30 17 62 l23 57 130 5
c113 4 135 8 159 26 24 18 28 28 28 69 0 41 -4 51 -28 69 -26 19 -42 21 -155
21 l-126 0 -23 53 -23 53 37 15 c21 9 85 37 143 64 184 85 338 128 463 129 60
1 71 -2 93 -24z m-949 -182 c90 -72 121 -208 71 -308 -46 -89 -89 -115 -191
-115 -143 0 -213 54 -247 193 -23 88 35 207 123 251 24 13 52 16 119 13 80 -3
91 -6 125 -34z m134 -560 c8 -9 41 -29 74 -44 61 -29 95 -51 95 -62 0 -4 16
-31 35 -61 41 -65 114 -131 202 -182 79 -46 130 -102 211 -233 79 -128 202
-343 202 -354 0 -13 -70 1 -205 40 -137 39 -124 43 -176 -61 -38 -75 -146
-239 -152 -229 -14 25 -49 147 -182 643 -35 130 -135 540 -135 553 0 13 17 8
31 -10z m-531 -60 c-7 -26 -35 -126 -62 -222 -27 -95 -69 -253 -94 -350 -62
-242 -130 -510 -138 -543 -3 -16 -10 -28 -14 -28 -13 0 -114 149 -162 239 -26
49 -54 87 -65 92 -12 4 -46 -1 -80 -12 -70 -22 -247 -60 -253 -54 -2 2 7 19
21 37 14 18 80 130 146 248 67 118 130 222 141 232 11 9 54 30 96 48 76 32
157 80 205 122 34 29 105 126 113 154 6 21 143 100 154 90 3 -3 -1 -27 -8 -53z
m238 27 c9 -1 2 -7 -17 -15 -42 -19 -40 -19 -34 6 4 12 11 18 20 15 8 -3 22
-6 31 -6z m-633 -104 c-44 -36 -148 -85 -198 -95 -48 -9 -144 1 -173 17 -16 9
-12 11 21 17 85 14 233 46 295 64 86 26 90 25 55 -3z m1486 -31 c84 -19 157
-39 162 -44 14 -14 -61 -34 -110 -28 -24 2 -72 19 -106 36 -61 31 -119 70
-105 71 4 0 76 -16 159 -35z"/>
<path d="M5032 5155 c-76 -21 -109 -41 -174 -103 -66 -63 -85 -109 -67 -161
13 -36 35 -51 75 -51 21 0 43 17 97 75 72 78 104 95 178 95 53 0 129 -43 168
-96 47 -62 73 -78 116 -70 92 18 83 120 -20 215 -100 92 -250 131 -373 96z"/>
<path d="M3065 2489 c-14 -18 -24 -38 -21 -46 3 -7 21 -51 40 -96 106 -252
126 -315 140 -451 8 -72 17 -185 20 -251 14 -273 16 -292 42 -320 34 -37 86
-34 126 6 l31 30 -7 97 c-3 53 -13 167 -21 252 -8 85 -19 216 -24 291 -9 129
-11 140 -49 215 -21 43 -52 112 -67 153 -15 41 -44 91 -63 113 -30 33 -40 38
-77 38 -36 0 -48 -5 -70 -31z"/>
<path d="M7041 2478 c-13 -12 -48 -73 -77 -135 -30 -63 -65 -129 -79 -147 -33
-43 -42 -99 -55 -336 -6 -107 -18 -257 -26 -332 -14 -124 -13 -140 1 -167 30
-60 106 -71 148 -22 21 26 25 42 31 143 20 326 38 505 57 558 11 30 35 98 53
150 19 52 48 124 65 160 37 78 38 94 6 125 -32 33 -91 34 -124 3z"/>
<path d="M5034 2087 c-47 -43 -56 -97 -24 -162 26 -53 61 -75 121 -75 35 0 47
6 81 40 40 40 40 41 36 101 -4 56 -8 65 -41 95 -31 29 -44 34 -87 34 -43 0
-56 -5 -86 -33z"/>
<path d="M5075 1566 c-51 -22 -85 -71 -85 -119 0 -79 58 -137 137 -137 130 0
186 175 78 246 -34 22 -94 27 -130 10z"/>
</g>
</svg>
